<svg width="30" height="30" viewBox="0 0 30 30" fill="none" xmlns="http://www.w3.org/2000/svg">
<circle cx="15" cy="15" r="14.5" stroke="#828282"/>
<path d="M18.4396 7.5H11.5604C9.32144 7.5 7.5 9.32144 7.5 11.5604V18.4397C7.5 20.6785 9.32144 22.5 11.5604 22.5H18.4397C20.6785 22.5 22.5 20.6785 22.5 18.4397V11.5604C22.5 9.32144 20.6785 7.5 18.4396 7.5V7.5ZM21.6206 18.4397C21.6206 20.1936 20.1936 21.6206 18.4396 21.6206H11.5604C9.80632 21.6206 8.37936 20.1936 8.37936 18.4397V11.5604C8.37936 9.80632 9.80632 8.37936 11.5604 8.37936H18.4397C20.1936 8.37936 21.6206 9.80632 21.6206 11.5604V18.4397Z" fill="#828282"/>
<path d="M15 10.8986C12.7384 10.8986 10.8986 12.7384 10.8986 15C10.8986 17.2616 12.7384 19.1014 15 19.1014C17.2616 19.1014 19.1014 17.2616 19.1014 15C19.1014 12.7384 17.2616 10.8986 15 10.8986ZM15 18.2221C13.2234 18.2221 11.7779 16.7767 11.7779 15C11.7779 13.2234 13.2234 11.7779 15 11.7779C16.7767 11.7779 18.2221 13.2234 18.2221 15C18.2221 16.7767 16.7767 18.2221 15 18.2221Z" fill="#828282"/>
<path d="M19.1995 9.44196C18.5311 9.44196 17.9875 9.98566 17.9875 10.6539C17.9875 11.3222 18.5311 11.8659 19.1995 11.8659C19.8678 11.8659 20.4115 11.3222 20.4115 10.6539C20.4115 9.98555 19.8678 9.44196 19.1995 9.44196ZM19.1995 10.9864C19.0161 10.9864 18.8669 10.8372 18.8669 10.6539C18.8669 10.4704 19.0161 10.3213 19.1995 10.3213C19.3829 10.3213 19.5322 10.4704 19.5322 10.6539C19.5322 10.8372 19.3829 10.9864 19.1995 10.9864Z" fill="#828282"/>
</svg>
