<svg width="30" height="30" viewBox="0 0 30 30" fill="none" xmlns="http://www.w3.org/2000/svg">
<circle cx="15" cy="15" r="14.5" stroke="#828282"/>
<path d="M13.0445 21.8182C10.3134 21.8182 8.15488 21.3366 7.12217 20.4971L7.10207 20.4807L7.08384 20.4623C6.83852 20.2145 6.75812 19.8896 6.86349 19.5708L6.8731 19.5443C7.00094 19.2216 7.31418 19.0043 7.65363 19.0023C8.35226 18.9901 8.9635 18.906 9.51818 18.7428C8.63341 18.3275 8.0188 17.6084 7.65313 16.5675C7.53016 16.2429 7.63628 15.883 7.91967 15.6684C7.98959 15.6153 8.06861 15.5753 8.15226 15.5484C7.66062 14.9756 7.29745 14.3237 7.09408 13.6343L7.08771 13.6129L7.08334 13.5909C7.0143 13.2423 7.16873 12.8838 7.45176 12.7294C7.57048 12.6606 7.69945 12.6249 7.82891 12.6219C7.68933 12.3185 7.58784 12.007 7.52766 11.6936C7.36062 10.8251 7.49845 9.95446 7.93715 9.10589L8.03865 8.901C8.11992 8.73705 8.27523 8.62188 8.45426 8.59252C8.63328 8.56328 8.8168 8.62301 8.94502 8.75243L9.12991 8.93931C10.5906 10.485 11.899 11.2184 14.161 11.7202C14.262 10.8437 14.6374 10.0291 15.2431 9.38791C15.9638 8.62503 16.9262 8.19696 17.9531 8.18235H17.9598C18.709 8.18235 19.6383 8.61407 20.2004 8.91851C20.6825 8.75923 21.2634 8.51263 21.8662 8.25191C22.1482 8.11833 22.4959 8.17945 22.7176 8.40325C22.935 8.62264 22.9953 8.932 22.8799 9.23266C22.8361 9.35578 22.7864 9.47662 22.7311 9.59482C22.8136 9.63301 22.8892 9.6848 22.9529 9.74919C23.1458 9.94388 23.2262 10.2486 23.1577 10.5256L23.1503 10.5519C22.9194 11.3032 22.4757 11.9151 21.8889 12.2992C21.7909 17.5666 17.861 21.8182 13.0445 21.8182ZM8.04239 19.9576C9.01556 20.5133 10.8701 20.8495 13.0445 20.8495C15.1351 20.8495 17.1079 19.9436 18.5994 18.2987C20.1031 16.6402 20.9312 14.4379 20.9312 12.0973V12.071C20.9312 11.859 21.0468 11.6656 21.2328 11.566C21.6102 11.3643 21.9159 11.0207 22.1146 10.5813C21.9096 10.6139 21.7013 10.5308 21.5735 10.3577C21.4251 10.1565 21.4235 9.88465 21.5694 9.68165C21.6482 9.57202 21.7196 9.45797 21.7833 9.34003C21.2628 9.56067 20.7685 9.75851 20.3395 9.88995C20.1835 9.93758 20.0097 9.91893 19.8673 9.83866C19.1034 9.40908 18.3919 9.15227 17.9629 9.15101C16.38 9.17545 15.093 10.5438 15.093 12.2029C15.093 12.3744 15.0176 12.5352 14.8864 12.6442C14.755 12.7531 14.5842 12.7967 14.4175 12.7634C11.8092 12.2447 10.2636 11.467 8.65638 9.83677C8.42604 10.3939 8.36312 10.955 8.46961 11.5091C8.5776 12.0703 8.86487 12.6327 9.30045 13.1354C9.466 13.3262 9.48797 13.5991 9.35513 13.8145C9.2228 14.0291 8.97124 14.1294 8.72941 14.064C8.5404 14.0128 8.36662 13.9457 8.20182 13.8593C8.53753 14.5954 9.11493 15.2761 9.84078 15.7781C10.0511 15.9237 10.139 16.195 10.0546 16.4379C9.97012 16.6813 9.73404 16.8379 9.47886 16.8188C9.20083 16.798 8.95451 16.7447 8.72779 16.6548C9.13478 17.4914 9.7851 17.9517 10.787 18.1277C11.0256 18.1696 11.2113 18.3598 11.2493 18.6008C11.2874 18.8419 11.1691 19.0808 10.9553 19.1954C10.1013 19.6523 9.16799 19.8975 8.04239 19.9576Z" fill="#828282"/>
</svg>
