<svg width="30" height="30" viewBox="0 0 30 30" fill="none" xmlns="http://www.w3.org/2000/svg">
<circle cx="15" cy="15" r="14.5" stroke="#828282"/>
<g clip-path="url(#clip0_2_71)">
<path d="M17.3088 14.3259L13.995 12.5127C13.8044 12.4085 13.5792 12.4124 13.3925 12.523C13.2056 12.6338 13.0941 12.8295 13.0941 13.0467V16.642C13.0941 16.8582 13.2049 17.0535 13.3905 17.1644C13.4874 17.2223 13.5949 17.2514 13.7026 17.2514C13.8012 17.2514 13.9001 17.227 13.9911 17.178L17.3051 15.3961C17.5018 15.2902 17.6246 15.0857 17.6255 14.8622C17.6263 14.6387 17.505 14.4333 17.3088 14.3259ZM13.9731 16.1897V13.5026L16.4498 14.8579L13.9731 16.1897Z" fill="#828282"/>
<path d="M22.3896 11.9979L22.3889 11.991C22.3762 11.8703 22.2498 10.7964 21.7277 10.2501C21.1243 9.60766 20.4401 9.52961 20.1111 9.49219C20.0839 9.4891 20.0589 9.48624 20.0366 9.48326L20.0104 9.48051C18.0274 9.33632 15.0326 9.31664 15.0026 9.31652L15 9.31641L14.9973 9.31652C14.9674 9.31664 11.9726 9.33632 9.97169 9.48051L9.94525 9.48326C9.92396 9.48612 9.9005 9.48875 9.87498 9.49173C9.54974 9.52927 8.87294 9.60743 8.26778 10.2731C7.77054 10.8135 7.6268 11.8644 7.61204 11.9825L7.61032 11.9979C7.60586 12.0481 7.5 13.2441 7.5 14.4448V15.5673C7.5 16.768 7.60586 17.964 7.61032 18.0144L7.61112 18.0219C7.62382 18.1407 7.75017 19.1949 8.26984 19.7414C8.83724 20.3624 9.55466 20.4445 9.94056 20.4887C10.0016 20.4957 10.0541 20.5016 10.0899 20.5079L10.1246 20.5127C11.2696 20.6217 14.8594 20.6754 15.0116 20.6775L15.0162 20.6776L15.0208 20.6775C15.0508 20.6774 18.0455 20.6577 20.0285 20.5135L20.0547 20.5108C20.0798 20.5075 20.1079 20.5045 20.1388 20.5013C20.4622 20.467 21.1354 20.3957 21.7322 19.739C22.2294 19.1985 22.3733 18.1476 22.3879 18.0296L22.3896 18.0143C22.3941 17.9639 22.5001 16.768 22.5001 15.5673V14.4448C22.4999 13.2441 22.3941 12.0482 22.3896 11.9979ZM21.6209 15.5673C21.6209 16.6786 21.5239 17.8231 21.5147 17.9282C21.4774 18.2176 21.3258 18.8825 21.0835 19.1459C20.71 19.5568 20.3263 19.5975 20.0461 19.6272C20.0122 19.6307 19.9809 19.6342 19.9525 19.6377C18.0345 19.7764 15.1527 19.7977 15.02 19.7985C14.8711 19.7963 11.3338 19.7422 10.2237 19.6391C10.1668 19.6298 10.1054 19.6227 10.0406 19.6154C9.71202 19.5778 9.26227 19.5263 8.91643 19.1459L8.9083 19.1372C8.67027 18.8892 8.52298 18.2674 8.48556 17.9316C8.47858 17.8522 8.37902 16.6942 8.37902 15.5673V14.4448C8.37902 13.3348 8.47583 12.1915 8.48522 12.0843C8.52974 11.7434 8.68423 11.1187 8.91643 10.8663C9.30141 10.4428 9.70733 10.3959 9.97581 10.3649C10.0014 10.3619 10.0254 10.3592 10.0474 10.3563C11.9934 10.2169 14.8958 10.1962 15 10.1954C15.1041 10.1961 18.0055 10.2169 19.9342 10.3563C19.9579 10.3593 19.9837 10.3623 20.0115 10.3655C20.2877 10.397 20.7051 10.4446 21.0881 10.8531L21.0916 10.8569C21.3297 11.1049 21.477 11.7375 21.5144 12.08C21.521 12.155 21.6209 13.3155 21.6209 14.4448V15.5673Z" fill="#828282"/>
</g>
<defs>
<clipPath id="clip0_2_71">
<rect width="15" height="15" fill="white" transform="translate(7.5 7.5)"/>
</clipPath>
</defs>
</svg>
