<svg width="30" height="30" viewBox="0 0 30 30" fill="none" xmlns="http://www.w3.org/2000/svg">
<circle cx="15" cy="15" r="14.5" stroke="#828282"/>
<path d="M16.0127 22.4721H13.6059C13.2038 22.4721 12.8768 22.1605 12.8768 21.7775V16.6057H11.4726C11.0706 16.6057 10.7436 16.294 10.7436 15.9112V13.695C10.7436 13.312 11.0706 13.0005 11.4726 13.0005H12.8768V11.8907C12.8768 10.7904 13.2395 9.85418 13.9255 9.18356C14.6147 8.50988 15.5777 8.15387 16.7106 8.15387L18.5462 8.15671C18.9475 8.15737 19.274 8.46892 19.274 8.85125V10.9089C19.274 11.2919 18.9471 11.6034 18.5452 11.6034L17.3093 11.6039C16.9324 11.6039 16.8364 11.6758 16.8159 11.6979C16.7821 11.7345 16.7418 11.838 16.7418 12.1236V13.0004H18.4523C18.5811 13.0004 18.7058 13.0306 18.813 13.0877C19.0443 13.2108 19.1881 13.4436 19.1881 13.6951L19.1872 15.9113C19.1872 16.294 18.8601 16.6056 18.4581 16.6056H16.7418V21.7775C16.7418 22.1605 16.4147 22.4721 16.0127 22.4721ZM13.7579 21.6327H15.8606V16.2299C15.8606 15.9742 16.0791 15.7662 16.3474 15.7662H18.3061L18.3069 13.8399H16.3473C16.0789 13.8399 15.8606 13.6319 15.8606 13.3762V12.1236C15.8606 11.7957 15.8956 11.4227 16.1554 11.1424C16.4694 10.8036 16.9642 10.7645 17.3091 10.7645L18.3929 10.764V8.99588L16.7099 8.99326C14.8893 8.99326 13.7579 10.1036 13.7579 11.8907V13.3762C13.7579 13.6318 13.5396 13.8399 13.2713 13.8399H11.6247V15.7662H13.2713C13.5396 15.7662 13.7579 15.9742 13.7579 16.2299V21.6327ZM18.5445 8.9961H18.5446H18.5445Z" fill="#828282"/>
</svg>
